<svg xmlns="http://www.w3.org/2000/svg" width="30" height="30" viewBox="0 0 30 30">
  <defs>
    <style>
      .cls-1 {
        fill: #fff;
        fill-rule: evenodd;
      }
    </style>
  </defs>
  <path id="icon--edit-1--outlined.svg" class="cls-1" d="M15,0A15,15,0,1,1,0,15,15,15,0,0,1,15,0Zm0,1A14,14,0,1,1,1,15,14,14,0,0,1,15,1Zm7.169,6.822a2.972,2.972,0,0,1,0,4.015l-9.94,9.94a2.669,2.669,0,0,1-1.51.754L7.51,22.99a0.572,0.572,0,0,1-.065,0A0.451,0.451,0,0,1,7,22.48L7.46,19.272a2.653,2.653,0,0,1,.754-1.51l9.941-9.94a2.835,2.835,0,0,1,2.007-.831A2.073,2.073,0,0,1,22.169,7.822ZM21.439,11.1l-0.321.321L18.565,8.87l0.321-.321A1.806,1.806,0,1,1,21.439,11.1h0Zm-10.866,10.4-2.442.348,0.348-2.442a1.655,1.655,0,0,1,.239-0.645l2.5,2.5a1.576,1.576,0,0,1-.643.242h0Z"/>
</svg>
