<svg xmlns="http://www.w3.org/2000/svg" width="30" height="30" viewBox="0 0 30 30">
  <path fill-rule="evenodd" d="M15,0A15,15,0,1,1,0,15,15,15,0,0,1,15,0Zm0,1A14,14,0,1,1,1,15,14,14,0,0,1,15,1ZM14.234,12.2c0.029-2.452-.812-3.586-1.3-5.467-0.226-.875.278-2.037,0.834-2.131V4.691a2.557,2.557,0,0,0,.046,1.668,28.173,28.173,0,0,1,1.251,3.15,3.222,3.222,0,0,1-.695,2.641A0.236,0.236,0,0,1,14.234,12.2ZM11.659,7.934V8.953c0.172,0.693.652,1.307,0.834,2.039s-0.091,1.94-.556,2.038v-1.3c-0.208-.812-0.621-1.563-0.834-2.409A1.324,1.324,0,0,1,11.52,7.98,0.236,0.236,0,0,1,11.659,7.934ZM7.038,14.049H20.844v0.927c1.931-.034,3.419,1.49,2.363,3.336a4.107,4.107,0,0,1-.741.788c-0.2.2-.349,0.459-0.556,0.649a7.277,7.277,0,0,1-2.363,1.2c-0.32.115-.719,0.156-1.019,0.232H18.064a5.9,5.9,0,0,0-.741.6c-0.216.125-.388,0.052-0.463,0.324h4.726V22.25l-0.093.046a7.413,7.413,0,0,1-2.131.463H18.527a21.95,21.95,0,0,1-4.633.185,20.774,20.774,0,0,1-4.448-.185H8.52A20.265,20.265,0,0,1,6.343,22.3,0.655,0.655,0,0,1,6.3,22.111h4.726V21.972a4.268,4.268,0,0,1-1.622-1.3C7.864,19.138,7.046,17.138,7.038,14.049ZM20.844,15.81a7.548,7.548,0,0,1-.973,3.243,3.147,3.147,0,0,0-.6,1.019,2.5,2.5,0,0,0,1.019-.417,4.449,4.449,0,0,0,2.085-1.714,1.322,1.322,0,0,0,.278-1.3A1.685,1.685,0,0,0,20.844,15.81ZM16.69,7.934V8.953c0.172,0.693.652,1.307,0.834,2.039s-0.091,1.94-.556,2.038v-1.3c-0.207-.812-0.621-1.563-0.834-2.409a1.324,1.324,0,0,1,.417-1.344A0.236,0.236,0,0,1,16.69,7.934Z"/>
</svg>
