<svg xmlns="http://www.w3.org/2000/svg" width="20" height="20" viewBox="0 0 20 20">
  <path fill-rule="evenodd" d="M10,4a6,6,0,1,1-6,6A6,6,0,0,1,10,4Zm0-4a1,1,0,0,1,1,1V2A1,1,0,0,1,9,2V1A1,1,0,0,1,10,0Zm0,17a1,1,0,0,1,1,1v1a1,1,0,0,1-2,0V18A1,1,0,0,1,10,17Zm10-7a1,1,0,0,1-1,1H18a1,1,0,0,1,0-2h1A1,1,0,0,1,20,10ZM3,10a1,1,0,0,1-1,1H1A1,1,0,0,1,1,9H2A1,1,0,0,1,3,10ZM17.071,2.929a1,1,0,0,1,0,1.414l-0.707.707A1,1,0,0,1,14.95,3.636l0.707-.707A1,1,0,0,1,17.071,2.929ZM5.05,14.95a1,1,0,0,1,0,1.414l-0.707.707a1,1,0,0,1-1.414-1.414l0.707-.707A1,1,0,0,1,5.05,14.95Zm12.021,2.121a1,1,0,0,1-1.414,0l-0.707-.707a1,1,0,0,1,1.414-1.414l0.707,0.707A1,1,0,0,1,17.071,17.071ZM5.05,5.05a1,1,0,0,1-1.414,0L2.929,4.343A1,1,0,0,1,4.343,2.929L5.05,3.636A1,1,0,0,1,5.05,5.05Z"/>
</svg>
