<svg xmlns="http://www.w3.org/2000/svg" width="40" height="40" viewBox="0 0 40 40">
  <path id="icon--clock-1--outlined.svg" fill-rule="evenodd" d="M20,0A20,20,0,1,1,0,20,20,20,0,0,1,20,0Zm0,1A19,19,0,1,1,1,20,19,19,0,0,1,20,1Zm0,7A12,12,0,1,1,8,20,12,12,0,0,1,20,8Zm0.8,10.493a1.7,1.7,0,0,1,.717.742l3.012-.053a0.8,0.8,0,1,1,.028,1.607l-3.095.054a1.7,1.7,0,1,1-2.27-2.35V13.911a0.8,0.8,0,1,1,1.607,0v4.582h0Zm6.273-5.581a10.007,10.007,0,1,1-7.931-2.895,10.16,10.16,0,0,1,2.212.055,9.981,9.981,0,0,1,5.719,2.839h0Z"/>
</svg>
