<svg xmlns="http://www.w3.org/2000/svg" width="40" height="40" viewBox="0 0 40 40">
  <path fill-rule="evenodd" d="M20,0A20,20,0,1,1,0,20,20,20,0,0,1,20,0Zm0,1A19,19,0,1,1,1,20,19,19,0,0,1,20,1Zm6.347,29.318H13.611a6.035,6.035,0,0,1-2.813-.359,3.273,3.273,0,0,1-1.439-1.439A6.036,6.036,0,0,1,9,25.706V15.166a6.036,6.036,0,0,1,.359-2.813A3.274,3.274,0,0,1,10.8,10.914a5.519,5.519,0,0,1,2.593-.359v-1.1a1.1,1.1,0,1,1,2.2,0v1.1h8.783v-1.1a1.1,1.1,0,0,1,2.2,0v1.1a5.518,5.518,0,0,1,2.593.359,3.272,3.272,0,0,1,1.439,1.44,6.036,6.036,0,0,1,.359,2.813v10.54a6.036,6.036,0,0,1-.359,2.813,3.273,3.273,0,0,1-1.439,1.439A6.035,6.035,0,0,1,26.347,30.317ZM11.2,17.142v8.564a6.1,6.1,0,0,0,.12,1.816,1.091,1.091,0,0,0,.48.48,6.1,6.1,0,0,0,1.816.12H26.347A6.1,6.1,0,0,0,28.163,28a1.091,1.091,0,0,0,.48-0.48,6.1,6.1,0,0,0,.12-1.816V17.142H11.2Zm0-2.2H28.762a5.1,5.1,0,0,0-.12-1.6,1.091,1.091,0,0,0-.48-0.48,6.1,6.1,0,0,0-1.816-.12H13.611a6.1,6.1,0,0,0-1.816.12,1.091,1.091,0,0,0-.48.48A5.1,5.1,0,0,0,11.2,14.946Zm15.37,12.077h-2.2a1.1,1.1,0,0,1,0-2.2h2.2A1.1,1.1,0,0,1,26.566,27.023Zm-5.489,0h-2.2a1.1,1.1,0,0,1,0-2.2h2.2A1.1,1.1,0,1,1,21.077,27.023Zm-5.489,0h-2.2a1.1,1.1,0,0,1,0-2.2h2.2A1.1,1.1,0,0,1,15.587,27.023ZM26.566,23.73h-2.2a1.1,1.1,0,1,1,0-2.2h2.2A1.1,1.1,0,0,1,26.566,23.73Zm-5.489,0h-2.2a1.1,1.1,0,1,1,0-2.2h2.2A1.1,1.1,0,1,1,21.077,23.73Zm-5.489,0h-2.2a1.1,1.1,0,1,1,0-2.2h2.2A1.1,1.1,0,1,1,15.587,23.73Zm10.979-3.294h-2.2a1.1,1.1,0,1,1,0-2.2h2.2A1.1,1.1,0,0,1,26.566,20.436Zm-5.489,0h-2.2a1.1,1.1,0,1,1,0-2.2h2.2A1.1,1.1,0,1,1,21.077,20.436Zm-5.489,0h-2.2a1.1,1.1,0,1,1,0-2.2h2.2A1.1,1.1,0,1,1,15.587,20.436Z"/>
</svg>
