<svg xmlns="http://www.w3.org/2000/svg" width="30" height="30" viewBox="0 0 30 30">
  <path fill-rule="evenodd" d="M15,0A15,15,0,1,1,0,15,15,15,0,0,1,15,0Zm0,1A14,14,0,1,1,1,15,14,14,0,0,1,15,1Zm1.3,5.11a6.517,6.517,0,0,1,5.28,6.337c0,3.678-.355,6.445,3.41,8.908H5.012c3.775-2.47,3.419-5.289,3.419-8.908A6.518,6.518,0,0,1,13.759,6.1a1.28,1.28,0,0,1,2.539.009h0Zm1.416,16.656a2.767,2.767,0,0,1-5.429,0h5.429ZM18,15H16v2a1,1,0,0,1-2,0V15H12a1,1,0,0,1,0-2h2V11a1,1,0,0,1,2,0v2h2A1,1,0,0,1,18,15Z"/>
</svg>
