<svg xmlns="http://www.w3.org/2000/svg" width="16" height="16" viewBox="0 0 16 16">
  <path fill-rule="evenodd" d="M8,16a8,8,0,1,1,8-8A8,8,0,0,1,8,16Zm7.248-7.988A6.956,6.956,0,0,0,15.168,7h-2.76c0.032,0.329.052,0.662,0.052,1s-0.019.671-.052,1h2.762A6.845,6.845,0,0,0,15.248,8.011Zm-1.255,3.98A7.193,7.193,0,0,0,14.944,10H12.255a10.267,10.267,0,0,1-.618,1.991h2.355Zm-0.823,1H11.145a10.41,10.41,0,0,1-1.383,1.927A7.13,7.13,0,0,0,13.169,12.987ZM8.489,14.6a9.25,9.25,0,0,0,1.328-1.611H8.489V14.6Zm0-2.606h1.894a9.19,9.19,0,0,0,.7-1.991h-2.6v1.991ZM11.257,9a8.454,8.454,0,0,0,0-2H8.489V9h2.769ZM8.489,6h2.6a9.2,9.2,0,0,0-.712-2.014H8.489V6ZM4.668,8a8.937,8.937,0,0,0,.059,1H7.489V7H4.727A8.95,8.95,0,0,0,4.668,8ZM4.9,10a9.188,9.188,0,0,0,.7,1.991H7.489V10H4.9Zm2.59,4.59v-1.6H6.167A9.254,9.254,0,0,0,7.489,14.59Zm-1.351.235a10.388,10.388,0,0,1-1.3-1.838H3.054A7.141,7.141,0,0,0,6.137,14.825Zm-3.9-2.833h2.11A10.3,10.3,0,0,1,3.729,10H1.287A7.164,7.164,0,0,0,2.237,11.991ZM1.064,9H3.577C3.544,8.671,3.525,8.338,3.525,8s0.019-.671.052-1H1.067A6.893,6.893,0,0,0,.986,8.011,6.885,6.885,0,0,0,1.064,9Zm1.2-5.014A7.169,7.169,0,0,0,1.294,6H3.726a10.252,10.252,0,0,1,.62-2.014H2.267Zm0.84-1H4.832A10.322,10.322,0,0,1,6.088,1.226,7.206,7.206,0,0,0,3.107,2.991ZM7.489,1.41A9.234,9.234,0,0,0,6.18,2.991H7.489V1.41ZM5.611,3.986A9.2,9.2,0,0,0,4.9,6h2.59V3.986H5.611Zm2.878-1H9.8A9.234,9.234,0,0,0,8.489,1.4V2.991Zm1.3-1.882a10.318,10.318,0,0,1,1.368,1.882h1.99A7.165,7.165,0,0,0,9.784,1.109Zm1.854,2.877A10.242,10.242,0,0,1,12.258,6h2.684a7.153,7.153,0,0,0-.966-2.014H11.638Z"/>
</svg>
