<svg xmlns="http://www.w3.org/2000/svg" width="30" height="30" viewBox="0 0 30 30">
  <path fill-rule="evenodd" d="M15,0A15,15,0,1,1,0,15,15,15,0,0,1,15,0Zm5.392,8.715L21.577,9.9a0.8,0.8,0,0,1,0,1.134l-0.954.954a6.346,6.346,0,0,1,.592,1.579h1.236a0.8,0.8,0,0,1,.8.8v1.676a0.8,0.8,0,0,1-.8.8H21.1a6.341,6.341,0,0,1-.7,1.535l0.875,0.875a0.8,0.8,0,0,1,0,1.134l-1.185,1.185a0.8,0.8,0,0,1-1.134,0L18,20.622a6.335,6.335,0,0,1-1.58.592v1.236a0.8,0.8,0,0,1-.8.8H13.946a0.8,0.8,0,0,1-.8-0.8V21.1a6.35,6.35,0,0,1-1.534-.7l-0.875.875a0.8,0.8,0,0,1-1.134,0L8.415,20.092a0.8,0.8,0,0,1,0-1.134L9.369,18a6.327,6.327,0,0,1-.592-1.579H7.541a0.8,0.8,0,0,1-.8-0.8V13.946a0.8,0.8,0,0,1,.8-0.8H8.89a6.354,6.354,0,0,1,.7-1.535l-0.875-.875a0.8,0.8,0,0,1,0-1.134L9.9,8.415a0.8,0.8,0,0,1,1.134,0l0.954,0.954a6.335,6.335,0,0,1,1.58-.592V7.541a0.8,0.8,0,0,1,.8-0.8h1.676a0.8,0.8,0,0,1,.8.8V8.889a6.351,6.351,0,0,1,1.535.7l0.875-.875a0.8,0.8,0,0,1,1.134,0h0ZM15,11.7A3.3,3.3,0,1,1,11.7,15,3.3,3.3,0,0,1,15,11.7h0Z"/>
</svg>
