<svg xmlns="http://www.w3.org/2000/svg" width="40" height="40" viewBox="0 0 40 40">
  <path fill-rule="evenodd" d="M20,0A20,20,0,1,1,0,20,20,20,0,0,1,20,0Zm0,7.011a9.166,9.166,0,0,1,8.99,9.333c0,5.155-5,14.676-8.99,18.666-3.8-3.991-8.99-13.512-8.99-18.666A9.166,9.166,0,0,1,20,7.011ZM20,9a7,7,0,1,1-7,7A7,7,0,0,1,20,9Zm-0.274,6.055a0.979,0.979,0,0,1,.591.044l2.234-2.175a0.469,0.469,0,0,1,.646.679L20.929,15.81a0.955,0.955,0,0,1-.278.923,0.976,0.976,0,0,1-1.377-.08,0.994,0.994,0,0,1-.218-0.984L16.248,12.7a0.455,0.455,0,1,1,.669-0.615l2.808,2.968h0Z"/>
</svg>
