<svg xmlns="http://www.w3.org/2000/svg" width="40" height="40" viewBox="0 0 40 40">
  <defs>
    <style>
      .cls-1 {
        fill: #fff;
        fill-rule: evenodd;
      }
    </style>
  </defs>
  <path id="icon--notification-1--filled.svg" class="cls-1" d="M20,0A20,20,0,1,1,0,20,20,20,0,0,1,20,0ZM21.268,11.34a6.361,6.361,0,0,1,5.16,6.182c0,3.589-.347,6.288,3.332,8.691H10.239c3.689-2.41,3.341-5.161,3.341-8.691a6.362,6.362,0,0,1,5.207-6.192,1.251,1.251,0,0,1,2.481.009h0Zm1.384,16.25a2.705,2.705,0,0,1-5.3,0h5.3Z"/>
</svg>
