<svg xmlns="http://www.w3.org/2000/svg" width="30" height="30" viewBox="0 0 30 30">
  <path fill-rule="evenodd" d="M15,0A15,15,0,1,1,0,15,15,15,0,0,1,15,0Zm0,1A14,14,0,1,1,1,15,14,14,0,0,1,15,1ZM10,13H20a1,1,0,0,1,1,1v8a1,1,0,0,1-1,1H10a1,1,0,0,1-1-1V14A1,1,0,0,1,10,13ZM9,9H21a1,1,0,0,1,1,1v1a1,1,0,0,1-1,1H9a1,1,0,0,1-1-1V10A1,1,0,0,1,9,9Zm4.5-2h3a0.5,0.5,0,0,1,0,1h-3A0.5,0.5,0,0,1,13.5,7Zm0.3,8a0.4,0.4,0,0,1,.4.4v5.2a0.4,0.4,0,0,1-.8,0V15.4A0.4,0.4,0,0,1,13.8,15Zm2.4,0a0.4,0.4,0,0,1,.4.4v5.2a0.4,0.4,0,0,1-.8,0V15.4A0.4,0.4,0,0,1,16.2,15Zm2.4,0a0.4,0.4,0,0,1,.4.4v5.2a0.4,0.4,0,1,1-.8,0V15.4A0.4,0.4,0,0,1,18.6,15Zm-7.2,0a0.4,0.4,0,0,1,.4.4v5.2a0.4,0.4,0,1,1-.8,0V15.4A0.4,0.4,0,0,1,11.4,15Z"/>
</svg>
