<svg xmlns="http://www.w3.org/2000/svg" width="20" height="16.594" viewBox="0 0 20 16.594">
  <path fill-rule="evenodd" d="M19,11H18a1,1,0,0,1,0-2h1A1,1,0,0,1,19,11ZM11,1V2A1,1,0,0,1,9,2V1A1,1,0,1,1,11,1ZM2.929,2.929a1,1,0,0,1,1.414,0L5.05,3.636A1,1,0,0,1,3.636,5.05L2.929,4.343A1,1,0,0,1,2.929,2.929ZM2,11H1A1,1,0,1,1,1,9H2A1,1,0,0,1,2,11Zm18,5.581C17.851,14.424,14.176,13,10,13S2.149,14.424,0,16.581v-1.32a14.15,14.15,0,0,1,5.7-2.746A4.95,4.95,0,0,1,5,10a5,5,0,0,1,10,0,4.95,4.95,0,0,1-.7,2.514A14.15,14.15,0,0,1,20,15.261v1.32ZM16.364,5.05A1,1,0,0,1,14.95,3.636l0.707-.707a1,1,0,1,1,1.414,1.414Z"/>
</svg>
