<svg xmlns="http://www.w3.org/2000/svg" width="14" height="14" viewBox="0 0 14 14">
  <path fill-rule="evenodd" d="M11.059,13.987H2.944a3.847,3.847,0,0,1-1.792-.229,2.086,2.086,0,0,1-.917-0.917,3.846,3.846,0,0,1-.229-1.792V4.333A3.846,3.846,0,0,1,.235,2.541a2.086,2.086,0,0,1,.917-0.917A3.516,3.516,0,0,1,2.8,1.4V0.7A0.7,0.7,0,0,1,4.2.7v0.7H9.8V0.7a0.7,0.7,0,0,1,1.4,0V1.4a3.516,3.516,0,0,1,1.652.229,2.085,2.085,0,0,1,.917.917A3.846,3.846,0,0,1,14,4.333v6.716a3.845,3.845,0,0,1-.229,1.792,2.086,2.086,0,0,1-.917.917A3.85,3.85,0,0,1,11.059,13.987ZM1.405,5.593v5.457a3.879,3.879,0,0,0,.076,1.157,0.7,0.7,0,0,0,.306.306,3.9,3.9,0,0,0,1.157.076h8.115a3.9,3.9,0,0,0,1.157-.076,0.7,0.7,0,0,0,.306-0.306,3.892,3.892,0,0,0,.076-1.157V5.593H1.405Zm0-1.4H12.6a3.255,3.255,0,0,0-.076-1.017,0.7,0.7,0,0,0-.306-0.306,3.891,3.891,0,0,0-1.157-.076H2.944a3.891,3.891,0,0,0-1.157.076,0.7,0.7,0,0,0-.306.306A3.251,3.251,0,0,0,1.405,4.193Zm9.794,7.7H9.8a0.7,0.7,0,1,1,0-1.4h1.4A0.7,0.7,0,0,1,11.2,11.889Zm-3.5,0H6.3a0.7,0.7,0,1,1,0-1.4H7.7A0.7,0.7,0,1,1,7.7,11.889Zm-3.5,0H2.8a0.7,0.7,0,1,1,0-1.4H4.2A0.7,0.7,0,0,1,4.2,11.889Zm7-2.1H9.8a0.7,0.7,0,1,1,0-1.4h1.4A0.7,0.7,0,0,1,11.2,9.79Zm-3.5,0H6.3a0.7,0.7,0,1,1,0-1.4H7.7A0.7,0.7,0,1,1,7.7,9.79Zm-3.5,0H2.8a0.7,0.7,0,1,1,0-1.4H4.2A0.7,0.7,0,0,1,4.2,9.79Zm7-2.1H9.8a0.7,0.7,0,0,1,0-1.4h1.4A0.7,0.7,0,0,1,11.2,7.691Zm-3.5,0H6.3a0.7,0.7,0,0,1,0-1.4H7.7A0.7,0.7,0,0,1,7.7,7.691Zm-3.5,0H2.8a0.7,0.7,0,0,1,0-1.4H4.2A0.7,0.7,0,0,1,4.2,7.691Z"/>
</svg>
