<svg xmlns="http://www.w3.org/2000/svg" width="20" height="18" viewBox="0 0 20 18">
  <path fill-rule="evenodd" d="M19,11H18a1,1,0,0,1,0-2h1A1,1,0,0,1,19,11ZM16.364,5.05A1,1,0,0,1,14.95,3.636l0.707-.707a1,1,0,1,1,1.414,1.414ZM14.578,12H5.422A5,5,0,1,1,14.578,12ZM10,3A1,1,0,0,1,9,2V1a1,1,0,0,1,2,0V2A1,1,0,0,1,10,3ZM3.636,5.05L2.929,4.343A1,1,0,0,1,4.343,2.929L5.05,3.636A1,1,0,0,1,3.636,5.05ZM3,10a1,1,0,0,1-1,1H1A1,1,0,0,1,1,9H2A1,1,0,0,1,3,10Zm16,4H1V13H19v1Zm-3,2H4V15H16v1Zm-2,2H6V17h8v1Z"/>
</svg>
