<svg xmlns="http://www.w3.org/2000/svg" width="40" height="40" viewBox="0 0 40 40">
  <path fill-rule="evenodd" d="M20,0A20,20,0,1,1,0,20,20,20,0,0,1,20,0ZM11,11H24a1,1,0,0,1,1,1v1a1,1,0,0,1-1,1H11a1,1,0,0,1-1-1V12A1,1,0,0,1,11,11Zm17,0h1a1,1,0,0,1,1,1v1a1,1,0,0,1-1,1H28a1,1,0,0,1-1-1V12A1,1,0,0,1,28,11ZM16,16H29a1,1,0,0,1,1,1v1a1,1,0,0,1-1,1H16a1,1,0,0,1-1-1V17A1,1,0,0,1,16,16Zm-5,0h1a1,1,0,0,1,1,1v1a1,1,0,0,1-1,1H11a1,1,0,0,1-1-1V17A1,1,0,0,1,11,16Zm0,5H24a1,1,0,0,1,1,1v1a1,1,0,0,1-1,1H11a1,1,0,0,1-1-1V22A1,1,0,0,1,11,21Zm17,0h1a1,1,0,0,1,1,1v1a1,1,0,0,1-1,1H28a1,1,0,0,1-1-1V22A1,1,0,0,1,28,21ZM16,26H29a1,1,0,0,1,1,1v1a1,1,0,0,1-1,1H16a1,1,0,0,1-1-1V27A1,1,0,0,1,16,26Zm-5,0h1a1,1,0,0,1,1,1v1a1,1,0,0,1-1,1H11a1,1,0,0,1-1-1V27A1,1,0,0,1,11,26Z"/>
</svg>
